PathFileType	4	(X/Y/Z)	Patient4_TMGait_0pt8_01_left_01.trc.trc
DataRate	CameraRate	NumFrames	NumMarkers	Units	OrigDataRate	OrigDataStartFrame	OrigNumFrames
86.956521739130	86.956521739130	4	33	mm	86.956521739130	71	       141
Frame#	Time	Sacral			L.Shoulder			Chest			R.Shoulder			Neck			R.ASIS			L.ASIS			R.Thigh.Superior			R.Thigh.Lateral			R.Thigh.Inferior			R.Patella			L.Thigh.Superior			L.Thigh.Lateral			L.Thigh.Inferior			L.Patella			L.Shank.Superior			L.Shank.Lateral			L.Shank.Inferior			R.Shank.Superior			R.Shank.Lateral			R.Shank.Inferior			R.Heel			R.Midfoot.Superior			R.Midfoot.Lateral			R.Toe			L.Heel			L.Midfoot.Lateral			L.Midfoot.Superior			L.Toe			L.Elbow			L.Wrist			R.Elbow			R.Wrist			
		X1	Y1	Z1	X2	Y2	Z2	X3	Y3	Z3	X4	Y4	Z4	X5	Y5	Z5	X6	Y6	Z6	X7	Y7	Z7	X8	Y8	Z8	X9	Y9	Z9	X10	Y10	Z10	X11	Y11	Z11	X12	Y12	Z12	X13	Y13	Z13	X14	Y14	Z14	X15	Y15	Z15	X16	Y16	Z16	X17	Y17	Z17	X18	Y18	Z18	X19	Y19	Z19	X20	Y20	Z20	X21	Y21	Z21	X22	Y22	Z22	X23	Y23	Z23	X24	Y24	Z24	X25	Y25	Z25	X26	Y26	Z26	X27	Y27	Z27	X28	Y28	Z28	X29	Y29	Z29	X30	Y30	Z30	X31	Y31	Z31	X32	Y32	Z32	X33	Y33	Z33	

71	0.945000000000	762.799019651387	993.615273945637	425.549121882135	957.034496823477	1421.168924674588	247.006813762659	1040.615063849819	1354.680726065295	419.526590484949	940.396822859780	1432.214776576892	582.212495753876	934.429225075171	1484.532407551885	399.161523886022	988.661506356624	931.944545515082	552.656398841042	981.973337597451	955.598331951001	276.706700515403	1061.956451878109	763.608072343696	528.708176072508	1022.956905727033	640.938914644991	606.788252495022	1115.415115218090	604.905906454425	529.842835377706	1151.898906970131	527.466631204901	550.903509061306	980.644784698815	728.760610250808	304.254167887653	857.179440125721	634.533415158972	249.493395981784	917.835243157622	541.079720762351	313.090548718920	902.604404555628	475.025586816412	324.511299606252	868.753896914804	410.032844219019	320.482235945914	764.187381146242	303.916908387757	277.998109524871	807.745286986550	190.926937043336	353.449285422703	1144.867489500100	442.191874388052	560.677450570162	1101.448938754884	322.348853697610	619.559644181740	1185.833323917304	246.607098727829	573.696671124678	1121.646838044079	48.243634382471	537.583532100822	1271.228095614277	140.602261802218	589.040574098993	1201.607655988903	53.985976123289	615.697838402028	1397.575250067418	119.800174601638	621.979698287467	671.718790457173	40.599674096961	410.767532587730	741.451375308737	35.292142512608	326.815022710205	826.802734989185	95.654791686242	348.443351049071	952.827095559746	42.557198265207	314.899119221481	1057.072052366525	1107.994213330468	93.473194722311	1306.581747970481	1050.373262777041	130.197219079763	762.829357105335	1141.450377630227	690.599868028239	688.280247755254	895.112370199382	724.839907128007	
72	0.956500000000	763.883937195048	991.805599548975	426.924463636050	956.350492852260	1419.683269229018	247.814286408665	1040.428158981600	1353.687497136196	420.278932457765	940.215048754732	1431.080814139225	583.011996855099	933.795806458935	1483.016240517963	399.981710914653	990.171780519407	930.062998345138	553.503537364522	982.815964304696	954.189687670679	277.584310766678	1063.128738178625	761.008034636889	529.057373837961	1022.495701669241	637.628514731459	605.499027556701	1115.045305048860	601.995070314480	528.740079908183	1150.672147896908	524.470507639309	548.564877741284	979.945586790798	727.063308608252	304.926139597800	855.954317644577	633.656642420691	250.006959705412	915.753245003706	539.631011140012	313.688928517570	899.845307683991	473.346104777815	325.051040994321	864.861453777753	408.638840568853	320.892477466490	758.729375762837	304.211612565806	278.171885781165	800.289141126577	190.454729323513	353.434525325513	1143.812726747854	438.825951143574	557.559965237086	1100.194103136487	318.690768517330	615.399633413384	1184.307477071990	243.240767736886	568.957345055936	1119.281934035017	46.234295211073	532.283604352003	1269.757449810486	136.809527843018	582.897511662278	1199.444596436058	51.374576743822	610.035704804379	1395.791046145661	114.828453696777	615.278116097555	662.530381798885	41.285535261212	410.469755360429	732.338160295745	35.477727020609	326.714767624860	817.820297829987	95.683843271505	348.312083954691	943.694376502721	42.096911777996	314.903441366177	1056.999907449123	1107.024494618153	93.847700259777	1307.337654108828	1055.273498009580	131.115915080952	760.955945839323	1142.310539921034	692.319775939500	684.317731356594	896.638074720236	726.885180200776	
73	0.968000000000	765.130478094678	990.049135064141	428.584256098953	955.726531820661	1418.215508164297	248.734618862401	1040.364404160341	1352.743340680494	421.130800225713	940.177434013000	1430.004338136904	583.955623955004	933.284676970616	1481.559872760630	400.929996642134	991.850128079838	928.258858632512	554.491644222085	983.701870372807	952.791625071965	278.574565503487	1064.821296177253	758.747137577495	529.460922842584	1022.550082308353	634.567473448013	603.984181255477	1115.205163966697	599.491187020065	527.434825592140	1149.924660602524	521.514882603912	545.920129864136	979.578258278098	725.425087378593	305.581174624307	854.970357663768	632.800126832937	250.674785642118	914.103397062883	538.179436451818	314.233958365474	897.543916103273	471.601236249091	325.573575558236	861.337167356995	407.209614549040	321.316892161228	753.500545061023	304.637940535638	278.423644576018	792.962332665480	190.056281460887	353.397814614591	1142.712808777123	435.225772979251	554.166384609888	1098.122167409842	315.149077456079	611.082235593141	1181.213139922086	239.351138052755	563.927697036331	1113.663250439246	44.467042837808	527.149585468790	1265.825184470955	132.098438281028	576.275291694127	1194.211401186239	48.623175914239	604.378904726301	1391.400042868609	107.939851632356	607.913500384217	653.363033925491	42.196274630060	410.114942229378	723.257490529715	35.744767952606	326.582714123793	808.905572556373	95.766335868826	348.111212852606	934.590938609247	41.586814152569	314.890686854823	1056.417230962004	1105.740433120101	94.432378084451	1307.378946253599	1059.078937115062	132.043831810906	759.907486291519	1142.643126009174	694.115062742587	681.934530063264	897.375125581606	728.984591676461	
74	0.979500000000	766.553446527935	988.390988424390	430.529794048365	955.178602486944	1416.795601085675	249.770650142115	1040.444992424232	1351.877118373095	422.080976329033	940.313085647827	1429.015471038550	585.053601597117	932.920446476994	1480.206307459891	402.009962418504	993.704602595014	926.579978816652	555.604252833123	984.629067957211	951.452838858664	279.671889550504	1066.943473177779	756.797986992639	529.886976362856	1023.035890867420	631.803905854529	602.329381444529	1115.773510072202	597.380072767380	525.961104293940	1149.547149803559	518.651390193882	543.013419612018	979.490825275640	723.880740619854	306.181947507716	854.167463088316	632.005970341147	251.491111094105	912.840659888417	536.760716362191	314.705037558489	895.677356066021	469.818210963056	326.027786547477	858.141181796538	405.791688797803	321.727451286105	748.458878195174	305.239820609523	278.755808165856	785.762413571465	189.773814932131	353.319932249532	1141.585719888935	431.518472889278	550.626352414097	1095.472138324697	311.787652723887	606.814977572888	1176.923199039374	235.124294697236	558.818901129341	1105.488677753040	42.967269905962	522.428552564573	1259.983413729693	126.776116169258	569.461842763563	1186.605306840435	45.875534495716	598.977370625541	1385.002388165461	99.624113722911	600.150559687013	644.219671018709	43.372482412909	409.706607858132	714.206344891101	36.108117469483	326.416335151864	800.074663454769	95.906943847867	347.822577206209	925.515969826747	41.046523811815	314.858924826798	1055.328001805267	1104.159419878360	95.238528793912	1306.762219135153	1061.745137234603	132.975320156792	759.721032123272	1142.432705733888	695.970637309861	681.145438512446	897.322696083873	731.121412906809	
